<svg width="49" height="37" viewBox="0 0 49 37" fill="none" xmlns="http://www.w3.org/2000/svg">
<path d="M0 36.5931L2.26663 22.6299C2.74382 19.5805 3.41983 16.812 4.29467 14.3243C5.24904 11.7563 6.64084 9.34889 8.47005 7.10195C10.2993 4.77476 12.725 2.40744 15.7471 0L21.8313 6.62046C18.8886 9.26865 16.7015 11.6761 15.2699 13.8428C13.9179 15.9292 12.9636 18.4972 12.4068 21.5466L8.82794 17.2132L22.3084 17.2132L19.326 36.5931H0ZM25.8873 36.5931L28.154 22.6299C28.6312 19.5805 29.3072 16.812 30.182 14.3243C31.1364 11.7563 32.5282 9.34889 34.3574 7.10195C36.1866 4.77476 38.6123 2.40744 41.6345 0L47.7186 6.62046C44.7759 9.26865 42.5888 11.6761 41.1573 13.8428C39.8053 15.9292 38.8509 18.4972 38.2942 21.5466L34.7153 17.2132H48.1958L45.2134 36.5931L25.8873 36.5931Z" fill="white"/>
</svg>
