<svg width="44" height="34" viewBox="0 0 44 34" fill="none" xmlns="http://www.w3.org/2000/svg">
<path d="M0.474078 33.2145L0.415362 33.5771H0.782715H17.5826H17.8509L17.8916 33.3119L20.4842 16.4223L20.5394 16.0622H20.1751H13.0509C13.415 15.17 13.8378 14.3523 14.3185 13.6084C15.5429 11.7509 17.4229 9.67328 19.9698 7.37541L20.2037 7.16431L19.9908 6.932L14.702 1.16227L14.5046 0.946961L14.2764 1.12923C11.6366 3.2374 9.50977 5.31662 7.9012 7.36789C6.29163 9.35051 5.06471 11.4775 4.22285 13.7485L4.22281 13.7485L4.22098 13.7537C3.45332 15.9421 2.86155 18.3735 2.44429 21.0465C2.44424 21.0467 2.4442 21.047 2.44415 21.0473L0.474078 33.2145ZM22.9776 33.2145L22.9189 33.5771H23.2862H40.0861H40.3544L40.3951 33.3119L42.9877 16.4223L43.0429 16.0622H42.6786H35.5544C35.9185 15.1701 36.3412 14.3524 36.822 13.6085C38.0463 11.7509 39.9263 9.67332 42.4733 7.37541L42.7072 7.16431L42.4943 6.932L37.2055 1.16227L37.0081 0.946961L36.7799 1.12923C34.1401 3.2374 32.0133 5.31661 30.4047 7.36788C28.7951 9.3505 27.5682 11.4775 26.7264 13.7485L26.7263 13.7485L26.7245 13.7537C25.9568 15.9421 25.3651 18.3734 24.9478 21.0463C24.9478 21.0467 24.9477 21.047 24.9476 21.0473L22.9776 33.2145Z" stroke="#0264F6" stroke-width="0.625312"/>
</svg>
