<svg width="39" height="39" viewBox="0 0 39 39" fill="none" xmlns="http://www.w3.org/2000/svg">
<path fill-rule="evenodd" clip-rule="evenodd" d="M19.125 0C13.9306 0 13.2804 0.021675 11.2404 0.11475C9.20422 0.207825 7.8132 0.531675 6.59685 1.0047C5.32185 1.4841 4.16542 2.23635 3.20917 3.21045C2.23663 4.1656 1.48392 5.32121 1.00342 6.59685C0.53295 7.8132 0.207825 9.2055 0.11475 11.2417C0.02295 13.2804 0 13.9294 0 19.125C0 24.3206 0.021675 24.9696 0.11475 27.0096C0.207825 29.0458 0.531675 30.4368 1.0047 31.6531C1.4841 32.9281 2.23635 34.0846 3.21045 35.0408C4.16562 36.0133 5.32122 36.766 6.59685 37.2466C7.8132 37.7183 9.20422 38.0422 11.2404 38.1352C13.2804 38.2283 13.9306 38.25 19.125 38.25C24.3193 38.25 24.9696 38.2283 27.0096 38.1352C29.0458 38.0422 30.4368 37.7183 31.6531 37.2453C32.9281 36.7659 34.0846 36.0136 35.0408 35.0395C36.0134 34.0844 36.7661 32.9288 37.2466 31.6531C37.7183 30.4368 38.0422 29.0458 38.1352 27.0096C38.2283 24.9696 38.25 24.3193 38.25 19.125C38.25 13.9306 38.2283 13.2804 38.1352 11.2404C38.0422 9.20422 37.7183 7.8132 37.2453 6.59685C36.7652 5.32066 36.0124 4.16456 35.0395 3.20917C34.0844 2.23663 32.9288 1.48392 31.6531 1.00342C30.4368 0.53295 29.0445 0.207825 27.0083 0.11475C24.9696 0.02295 24.3206 0 19.125 0ZM19.125 3.44633C24.2314 3.44633 24.837 3.46545 26.854 3.55725C28.7181 3.64267 29.7304 3.9525 30.4049 4.21642C31.2974 4.56195 31.9349 4.9776 32.6043 5.6457C33.2737 6.31507 33.6881 6.95257 34.0336 7.84507C34.2962 8.51955 34.6073 9.5319 34.6927 11.3959C34.7845 13.413 34.8037 14.0186 34.8037 19.125C34.8037 24.2314 34.7845 24.837 34.6927 26.854C34.6073 28.7181 34.2975 29.7304 34.0336 30.4049C33.7275 31.2356 33.2391 31.9872 32.6043 32.6043C31.9873 33.2392 31.2357 33.7276 30.4049 34.0336C29.7304 34.2962 28.7181 34.6073 26.854 34.6927C24.837 34.7845 24.2326 34.8037 19.125 34.8037C14.0173 34.8037 13.413 34.7845 11.3959 34.6927C9.5319 34.6073 8.51955 34.2975 7.84507 34.0336C7.01436 33.7275 6.26281 33.2391 5.6457 32.6043C5.01097 31.9871 4.52259 31.2356 4.21642 30.4049C3.95377 29.7304 3.64267 28.7181 3.55725 26.854C3.46545 24.837 3.44633 24.2314 3.44633 19.125C3.44633 14.0186 3.46545 13.413 3.55725 11.3959C3.64267 9.5319 3.9525 8.51955 4.21642 7.84507C4.56195 6.95257 4.9776 6.31507 5.6457 5.6457C6.26272 5.01081 7.0143 4.52239 7.84507 4.21642C8.51955 3.95377 9.5319 3.64267 11.3959 3.55725C13.413 3.46545 14.0186 3.44633 19.125 3.44633V3.44633Z" fill="#1C1C1C"/>
<path fill-rule="evenodd" clip-rule="evenodd" d="M19.1252 25.5063C18.2872 25.5063 17.4573 25.3412 16.6831 25.0205C15.9089 24.6998 15.2054 24.2298 14.6129 23.6372C14.0203 23.0447 13.5502 22.3412 13.2295 21.567C12.9089 20.7927 12.7438 19.9629 12.7438 19.1249C12.7438 18.2869 12.9089 17.4571 13.2295 16.6829C13.5502 15.9086 14.0203 15.2052 14.6129 14.6126C15.2054 14.02 15.9089 13.55 16.6831 13.2293C17.4573 12.9086 18.2872 12.7435 19.1252 12.7435C20.8176 12.7435 22.4407 13.4159 23.6375 14.6126C24.8342 15.8093 25.5065 17.4325 25.5065 19.1249C25.5065 20.8174 24.8342 22.4405 23.6375 23.6372C22.4407 24.834 20.8176 25.5063 19.1252 25.5063V25.5063ZM19.1252 9.29467C16.518 9.29467 14.0177 10.3304 12.1741 12.1739C10.3306 14.0174 9.29492 16.5178 9.29492 19.1249C9.29492 21.7321 10.3306 24.2324 12.1741 26.076C14.0177 27.9195 16.518 28.9552 19.1252 28.9552C21.7323 28.9552 24.2327 27.9195 26.0762 26.076C27.9197 24.2324 28.9554 21.7321 28.9554 19.1249C28.9554 16.5178 27.9197 14.0174 26.0762 12.1739C24.2327 10.3304 21.7323 9.29467 19.1252 9.29467V9.29467ZM31.8152 9.11617C31.8152 9.73245 31.5704 10.3235 31.1347 10.7593C30.6989 11.195 30.1078 11.4399 29.4916 11.4399C28.8753 11.4399 28.2842 11.195 27.8485 10.7593C27.4127 10.3235 27.1679 9.73245 27.1679 9.11617C27.1679 8.49989 27.4127 7.90885 27.8485 7.47307C28.2842 7.0373 28.8753 6.79248 29.4916 6.79248C30.1078 6.79248 30.6989 7.0373 31.1347 7.47307C31.5704 7.90885 31.8152 8.49989 31.8152 9.11617" fill="#1C1C1C"/>
</svg>
