<svg width="54" height="41" viewBox="0 0 54 41" fill="none" xmlns="http://www.w3.org/2000/svg">
<path d="M0 41L2.5396 25.3553C3.07426 21.9386 3.83168 18.8366 4.81188 16.0493C5.88119 13.1722 7.44059 10.4748 9.4901 7.95724C11.5396 5.34978 14.2574 2.69737 17.6436 0L24.4604 7.41776C21.1634 10.3849 18.7129 13.0822 17.1089 15.5099C15.5941 17.8476 14.5248 20.7248 13.901 24.1414L9.89109 19.2862H24.9951L21.6535 41H0ZM29.0049 41L31.5446 25.3553C32.0792 21.9386 32.8366 18.8366 33.8168 16.0493C34.8861 13.1722 36.4455 10.4748 38.495 7.95724C40.5446 5.34978 43.2624 2.69737 46.6485 0L53.4653 7.41776C50.1683 10.3849 47.7178 13.0822 46.1139 15.5099C44.599 17.8476 43.5297 20.7248 42.9059 24.1414L38.896 19.2862H54L50.6584 41H29.0049Z" fill="#0264F6"/>
</svg>
