<svg width="36" height="34" viewBox="0 0 36 34" fill="none" xmlns="http://www.w3.org/2000/svg">
<path d="M35.25 2.48162V31.2684C35.25 31.9265 34.9769 32.5578 34.4908 33.0232C34.0048 33.4885 33.3455 33.75 32.6581 33.75H2.59191C1.90449 33.75 1.24523 33.4885 0.759153 33.0232C0.273076 32.5578 0 31.9265 0 31.2684L0 2.48162C0 1.82345 0.273076 1.19224 0.759153 0.726849C1.24523 0.261455 1.90449 0 2.59191 0L32.6581 0C33.3455 0 34.0048 0.261455 34.4908 0.726849C34.9769 1.19224 35.25 1.82345 35.25 2.48162V2.48162ZM10.3676 12.9044H5.18382V28.7868H10.3676V12.9044ZM10.8342 7.44485C10.8369 7.06942 10.7624 6.69716 10.6149 6.34931C10.4673 6.00146 10.2497 5.68484 9.97433 5.41752C9.69899 5.15021 9.37135 4.93745 9.01012 4.79137C8.6489 4.6453 8.26116 4.56877 7.86904 4.56618H7.77574C6.97833 4.56618 6.21359 4.86946 5.64974 5.40932C5.08589 5.94918 4.76912 6.68138 4.76912 7.44485C4.76912 8.20833 5.08589 8.94053 5.64974 9.48038C6.21359 10.0202 6.97833 10.3235 7.77574 10.3235V10.3235C8.16788 10.3328 8.55808 10.2679 8.92404 10.1327C9.29 9.99754 9.62455 9.79462 9.90858 9.53559C10.1926 9.27655 10.4205 8.96647 10.5794 8.62306C10.7382 8.27966 10.8248 7.90965 10.8342 7.53419V7.44485ZM30.0662 19.1382C30.0662 14.3636 26.8937 12.5074 23.7419 12.5074C22.71 12.4579 21.6825 12.6683 20.762 13.1177C19.8415 13.5671 19.0602 14.2397 18.4959 15.0684H18.3507V12.9044H13.4779V28.7868H18.6618V20.3393C18.5868 19.4742 18.8715 18.6157 19.4538 17.9503C20.0362 17.2849 20.8693 16.8664 21.7721 16.7857H21.969C23.6175 16.7857 24.8409 17.7783 24.8409 20.2798V28.7868H30.0247L30.0662 19.1382Z" fill="#1C1C1C"/>
</svg>
