<?xml version="1.0" encoding="UTF-8"?>
<svg id="Calque_1" data-name="Calque 1" xmlns="http://www.w3.org/2000/svg" viewBox="0 0 255.12 198.43">
  <defs>
    <style>
      .cls-1 {
        fill: none;
        stroke: #1d1d1b;
        stroke-width: .65px;
      }

      .cls-2 {
        fill: #e84038;
      }

      .cls-3 {
        fill: #4fb3b4;
      }

      .cls-4 {
        fill: #f4bc45;
      }

      .cls-5 {
        fill: #1773ba;
      }

      .cls-6 {
        fill: #d90b3d;
      }

      .cls-7 {
        fill: #1d1d1b;
      }
    </style>
  </defs>
  <g>
    <g>
      <polyline class="cls-1" points="12.04 159.09 239.3 159.09 245.29 155.57"/>
      <g>
        <g>
          <path class="cls-7" d="m41.29,170.32h2.74l3.08,5.87,1.16,2.61h.07c-.11-1.25-.33-2.92-.33-4.31v-4.17h2.54v11.82h-2.74l-3.08-5.89-1.16-2.57h-.07c.11,1.31.33,2.88.33,4.28v4.19h-2.54v-11.82Z"/>
          <path class="cls-7" d="m52.52,177.65c0-2.99,2.1-4.71,4.39-4.71s4.37,1.72,4.37,4.71-2.1,4.71-4.37,4.71-4.39-1.72-4.39-4.71Zm6.04,0c0-1.56-.56-2.56-1.65-2.56s-1.65,1-1.65,2.56.54,2.56,1.65,2.56,1.65-1,1.65-2.56Z"/>
          <path class="cls-7" d="m63.02,173.15h2.18l.18,1.58h.07c.65-1.21,1.63-1.79,2.56-1.79.51,0,.82.07,1.07.18l-.43,2.3c-.33-.09-.6-.15-.98-.15-.67,0-1.5.44-1.98,1.65v5.22h-2.67v-8.99Z"/>
          <path class="cls-7" d="m69.49,177.65c0-2.94,1.83-4.71,3.73-4.71,1,0,1.6.36,2.21.94l-.11-1.38v-3.06h2.67v12.71h-2.18l-.18-.89h-.07c-.63.63-1.52,1.11-2.39,1.11-2.23,0-3.68-1.78-3.68-4.71Zm5.84,1.72v-3.68c-.47-.43-1-.58-1.49-.58-.85,0-1.61.8-1.61,2.5s.6,2.57,1.63,2.57c.58,0,1.03-.22,1.47-.82Z"/>
          <path class="cls-7" d="m84.26,170.25h6.85v1.27h-5.35v4.03h4.53v1.27h-4.53v5.33h-1.5v-11.89Z"/>
          <path class="cls-7" d="m92.62,173.33h1.23l.13,1.6h.05c.6-1.11,1.5-1.81,2.5-1.81.38,0,.65.05.94.18l-.29,1.31c-.29-.09-.49-.15-.85-.15-.74,0-1.63.54-2.23,2.03v5.66h-1.49v-8.81Z"/>
          <path class="cls-7" d="m97.84,179.86c0-1.92,1.65-2.88,5.4-3.3,0-1.12-.36-2.21-1.81-2.21-1.02,0-1.94.47-2.63.94l-.58-1.03c.82-.53,2.05-1.14,3.46-1.14,2.16,0,3.06,1.43,3.06,3.63v5.4h-1.23l-.13-1.05h-.05c-.83.69-1.81,1.27-2.92,1.27-1.47,0-2.57-.92-2.57-2.5Zm5.4.13v-2.45c-2.94.36-3.95,1.09-3.95,2.21,0,1,.69,1.41,1.56,1.41s1.54-.42,2.39-1.18Z"/>
          <path class="cls-7" d="m107.43,173.33h1.23l.13,1.27h.05c.83-.83,1.74-1.49,2.96-1.49,1.85,0,2.68,1.2,2.68,3.44v5.58h-1.49v-5.38c0-1.65-.51-2.36-1.67-2.36-.91,0-1.52.47-2.41,1.36v6.38h-1.49v-8.81Z"/>
          <path class="cls-7" d="m116.61,177.76c0-2.96,1.98-4.64,4.24-4.64,1.16,0,1.96.47,2.57,1.03l-.76.98c-.51-.45-1.05-.78-1.76-.78-1.6,0-2.76,1.38-2.76,3.41s1.11,3.37,2.72,3.37c.82,0,1.52-.4,2.07-.89l.65,1c-.8.71-1.79,1.12-2.85,1.12-2.34,0-4.13-1.69-4.13-4.61Z"/>
          <path class="cls-7" d="m125.44,169.24h1.49v3.52l-.05,1.81c.83-.8,1.72-1.45,2.94-1.45,1.85,0,2.68,1.2,2.68,3.44v5.58h-1.49v-5.38c0-1.65-.51-2.36-1.67-2.36-.91,0-1.52.47-2.41,1.36v6.38h-1.49v-12.91Z"/>
          <path class="cls-7" d="m134.57,177.76c0-2.88,1.94-4.64,3.95-4.64,2.25,0,3.52,1.61,3.52,4.13,0,.31-.02.63-.05.85h-5.95c.11,1.87,1.25,3.06,2.94,3.06.83,0,1.54-.27,2.19-.69l.53.98c-.76.49-1.7.91-2.9.91-2.36,0-4.22-1.72-4.22-4.61Zm6.16-.73c0-1.78-.8-2.74-2.18-2.74-1.23,0-2.36,1-2.54,2.74h4.71Z"/>
          <path class="cls-7" d="m143.56,177.03h4.17v1.14h-4.17v-1.14Z"/>
          <path class="cls-7" d="m149.31,176.2c0-3.83,2.25-6.16,5.28-6.16,1.45,0,2.57.69,3.26,1.47l-.82.98c-.63-.67-1.41-1.12-2.43-1.12-2.25,0-3.73,1.85-3.73,4.8s1.43,4.88,3.68,4.88c1.14,0,1.99-.51,2.76-1.34l.83.94c-.94,1.09-2.1,1.72-3.65,1.72-2.97,0-5.18-2.28-5.18-6.16Z"/>
          <path class="cls-7" d="m159.47,177.76c0-2.96,1.92-4.64,4.08-4.64s4.08,1.69,4.08,4.64-1.92,4.61-4.08,4.61-4.08-1.69-4.08-4.61Zm6.62,0c0-2.03-1.02-3.41-2.54-3.41s-2.54,1.38-2.54,3.41,1.03,3.37,2.54,3.37,2.54-1.36,2.54-3.37Z"/>
          <path class="cls-7" d="m169.86,173.33h1.23l.13,1.27h.05c.76-.83,1.69-1.49,2.74-1.49,1.34,0,2.07.63,2.43,1.69.92-1,1.83-1.69,2.9-1.69,1.81,0,2.68,1.2,2.68,3.44v5.58h-1.49v-5.38c0-1.65-.53-2.36-1.63-2.36-.69,0-1.4.45-2.21,1.36v6.38h-1.49v-5.38c0-1.65-.53-2.36-1.65-2.36-.65,0-1.4.45-2.21,1.36v6.38h-1.49v-8.81Z"/>
          <path class="cls-7" d="m185.06,179.43v-4.88h-1.31v-1.12l1.38-.09.18-2.47h1.25v2.47h2.38v1.21h-2.38v4.9c0,1.09.34,1.7,1.36,1.7.31,0,.71-.13,1-.24l.29,1.12c-.49.16-1.09.33-1.63.33-1.89,0-2.52-1.2-2.52-2.94Z"/>
          <path class="cls-7" d="m189.94,177.76c0-2.88,1.94-4.64,3.95-4.64,2.25,0,3.52,1.61,3.52,4.13,0,.31-.02.63-.05.85h-5.95c.11,1.87,1.25,3.06,2.94,3.06.83,0,1.54-.27,2.19-.69l.53.98c-.76.49-1.7.91-2.9.91-2.36,0-4.22-1.72-4.22-4.61Zm6.16-.73c0-1.78-.8-2.74-2.18-2.74-1.23,0-2.36,1-2.54,2.74h4.71Z"/>
        </g>
        <path class="cls-2" d="m197.26,170.14l-1.31-1.14c-.32.28-.63.49-.93.62-.3.13-.64.19-1.02.19h-.07c-.38,0-.72-.06-1.02-.19-.3-.13-.61-.33-.93-.62l-1.31,1.14c.36.44.79.78,1.29,1.04.11.05.21.1.33.14.45.17.93.27,1.44.29.06,0,.11,0,.17,0h.12c.06,0,.11,0,.17,0,.52-.02,1-.12,1.45-.29.11-.04.22-.09.33-.14.5-.26.93-.6,1.29-1.04"/>
      </g>
    </g>
    <g>
      <path class="cls-7" d="m34.42,183.09h0s0,0,0,0c0,0,0,0-.02,0s0,0-.01,0c-1.68,0-3.08-.58-4.26-1.74-1.19-1.19-1.77-2.6-1.77-4.28v-10.02c0-.73.59-1.33,1.33-1.33s1.33.59,1.33,1.33v3.99s1.42,0,1.42,0c.73,0,1.33.59,1.33,1.33s-.59,1.33-1.33,1.33h-1.37s-.04,0-.06,0v3.14h0c0,.08,0,.15,0,.23,0,1.02.33,1.85.97,2.51.66.64,1.46.97,2.43.97,0,0,.02,0,.02,0,.69.01,1.25.57,1.25,1.27s-.56,1.26-1.25,1.27Z"/>
      <path class="cls-7" d="m14.13,180.79c0,.73-.59,1.33-1.33,1.33s-1.33-.59-1.33-1.33v-9.26c0-.73.59-1.33,1.33-1.33s1.33.59,1.33,1.33v9.26Z"/>
      <path class="cls-7" d="m21.25,182.19c-1.35,0-2.54-.44-3.53-1.35-.97-.91-1.46-2.32-1.46-4.2v-5.17c0-.73.59-1.33,1.33-1.33s1.33.59,1.33,1.33v5.17c0,1.99.91,3.01,2.35,3.01s2.37-1.05,2.37-3.01v-1.9c0-.73.59-1.33,1.33-1.33s1.33.59,1.33,1.33v1.9c0,1.85-.5,3.26-1.49,4.17-.99.91-2.18,1.38-3.53,1.38Z"/>
      <g>
        <g>
          <circle class="cls-3" cx="34.39" cy="181.82" r="1.28"/>
          <circle class="cls-4" cx="12.84" cy="167.05" r="1.33"/>
        </g>
        <circle class="cls-6" cx="24.94" cy="171.47" r="1.33"/>
      </g>
    </g>
  </g>
  <g>
    <path d="m10.91,102.51h2.46l3.09,8.59c.39,1.1.76,2.26,1.15,3.36h.1c.39-1.1.71-2.26,1.1-3.36l3.04-8.59h2.48v16.11h-1.92v-8.86c0-1.42.17-3.34.27-4.76h-.1l-1.28,3.66-3.04,8.35h-1.35l-3.04-8.35-1.28-3.66h-.1c.1,1.42.25,3.34.25,4.76v8.86h-1.84v-16.11Z"/>
    <path d="m27.56,112.67c0-3.9,2.63-6.29,5.35-6.29,3.04,0,4.76,2.19,4.76,5.6,0,.42-.02.86-.07,1.15h-8.05c.15,2.53,1.69,4.15,3.98,4.15,1.13,0,2.09-.37,2.97-.93l.71,1.33c-1.03.66-2.31,1.23-3.93,1.23-3.19,0-5.72-2.33-5.72-6.24Zm8.35-.98c0-2.41-1.08-3.71-2.95-3.71-1.67,0-3.19,1.35-3.44,3.71h6.38Zm-4.37-8.15l3.46-4.1,1.42,1.35-3.85,3.76-1.03-1.01Z"/>
    <path d="m40.6,114.93v-6.6h-1.77v-1.52l1.87-.12.25-3.34h1.69v3.34h3.22v1.65h-3.22v6.63c0,1.47.47,2.31,1.84,2.31.42,0,.96-.17,1.35-.32l.39,1.52c-.66.22-1.47.44-2.21.44-2.55,0-3.41-1.62-3.41-3.98Z"/>
    <path d="m48.11,102.9c0-.79.56-1.33,1.35-1.33s1.35.54,1.35,1.33-.56,1.33-1.35,1.33-1.35-.52-1.35-1.33Zm.32,3.78h2.01v11.93h-2.01v-11.93Z"/>
    <path d="m53.47,112.67c0-3.9,2.63-6.29,5.35-6.29,3.04,0,4.76,2.19,4.76,5.6,0,.42-.02.86-.07,1.15h-8.05c.15,2.53,1.69,4.15,3.98,4.15,1.13,0,2.09-.37,2.97-.93l.71,1.33c-1.03.66-2.31,1.23-3.93,1.23-3.19,0-5.72-2.33-5.72-6.24Zm8.35-.98c0-2.41-1.08-3.71-2.95-3.71-1.67,0-3.19,1.35-3.44,3.71h6.38Z"/>
    <path d="m66.41,106.68h1.67l.17,2.16h.07c.81-1.5,2.04-2.46,3.39-2.46.52,0,.88.07,1.28.25l-.39,1.77c-.39-.12-.66-.2-1.15-.2-1.01,0-2.21.74-3.02,2.75v7.66h-2.01v-11.93Z"/>
    <path d="m73.38,117.26l1.01-1.35c1.03.83,2.09,1.42,3.51,1.42,1.57,0,2.36-.83,2.36-1.87,0-1.23-1.42-1.77-2.72-2.26-1.69-.61-3.49-1.42-3.49-3.44s1.52-3.39,4.12-3.39c1.47,0,2.77.61,3.71,1.35l-.98,1.28c-.81-.61-1.67-1.06-2.73-1.06-1.5,0-2.18.81-2.18,1.72,0,1.13,1.23,1.55,2.58,2.06,1.72.64,3.63,1.35,3.63,3.61,0,1.94-1.55,3.56-4.37,3.56-1.69,0-3.31-.71-4.44-1.64Z"/>
    <path d="m88.8,112.67c0-3.88,2.46-6.29,5.18-6.29,1.38,0,2.28.52,3.34,1.38l-.1-2.04v-4.59h2.04v17.48h-1.67l-.17-1.4h-.07c-.93.91-2.21,1.69-3.61,1.69-3,0-4.93-2.26-4.93-6.24Zm8.42,2.9v-6.24c-1.01-.91-1.92-1.25-2.9-1.25-1.92,0-3.44,1.84-3.44,4.57s1.2,4.57,3.29,4.57c1.11,0,2.06-.54,3.04-1.65Z"/>
    <path d="m103,114.24v-7.56h2.04v7.29c0,2.23.66,3.19,2.23,3.19,1.23,0,2.09-.61,3.22-2.01v-8.47h2.01v11.93h-1.67l-.17-1.87h-.07c-1.1,1.3-2.28,2.16-3.93,2.16-2.53,0-3.66-1.62-3.66-4.66Z"/>
    <path d="m121.39,102.51h2.46l3.09,8.59c.39,1.1.76,2.26,1.15,3.36h.1c.39-1.1.71-2.26,1.1-3.36l3.04-8.59h2.48v16.11h-1.92v-8.86c0-1.42.17-3.34.27-4.76h-.1l-1.28,3.66-3.04,8.35h-1.35l-3.04-8.35-1.28-3.66h-.1c.1,1.42.25,3.34.25,4.76v8.86h-1.84v-16.11Z"/>
    <path d="m138.75,114.24v-7.56h2.04v7.29c0,2.23.66,3.19,2.23,3.19,1.23,0,2.09-.61,3.22-2.01v-8.47h2.01v11.93h-1.67l-.17-1.87h-.07c-1.1,1.3-2.28,2.16-3.93,2.16-2.53,0-3.66-1.62-3.66-4.66Z"/>
    <path d="m152.16,116.21v-15.07h2.01v15.22c0,.64.27.88.56.88.12,0,.22,0,.44-.05l.27,1.52c-.27.12-.61.2-1.15.2-1.52,0-2.14-.96-2.14-2.7Z"/>
    <path d="m158.64,114.93v-6.6h-1.77v-1.52l1.87-.12.25-3.34h1.69v3.34h3.22v1.65h-3.22v6.63c0,1.47.47,2.31,1.84,2.31.42,0,.96-.17,1.35-.32l.39,1.52c-.66.22-1.47.44-2.21.44-2.55,0-3.41-1.62-3.41-3.98Z"/>
    <path d="m166.16,102.9c0-.79.56-1.33,1.35-1.33s1.35.54,1.35,1.33-.56,1.33-1.35,1.33-1.35-.52-1.35-1.33Zm.32,3.78h2.01v11.93h-2.01v-11.93Z"/>
    <path d="m172.4,106.68h1.67l.17,1.72h.07c1.03-1.13,2.28-2.01,3.71-2.01,1.82,0,2.8.86,3.29,2.28,1.25-1.35,2.48-2.28,3.93-2.28,2.46,0,3.63,1.62,3.63,4.66v7.56h-2.01v-7.29c0-2.23-.71-3.19-2.21-3.19-.93,0-1.89.61-3,1.84v8.64h-2.01v-7.29c0-2.23-.71-3.19-2.23-3.19-.88,0-1.89.61-3,1.84v8.64h-2.01v-11.93Z"/>
    <path d="m191.75,112.67c0-3.9,2.63-6.29,5.35-6.29,3.04,0,4.76,2.19,4.76,5.6,0,.42-.02.86-.07,1.15h-8.05c.15,2.53,1.69,4.15,3.98,4.15,1.13,0,2.09-.37,2.97-.93l.71,1.33c-1.03.66-2.31,1.23-3.93,1.23-3.19,0-5.72-2.33-5.72-6.24Zm8.35-.98c0-2.41-1.08-3.71-2.95-3.71-1.67,0-3.19,1.35-3.44,3.71h6.38Zm-4.37-8.15l3.46-4.1,1.42,1.35-3.85,3.76-1.03-1.01Z"/>
    <path d="m203.83,112.67c0-3.88,2.46-6.29,5.18-6.29,1.38,0,2.28.52,3.34,1.38l-.1-2.04v-4.59h2.04v17.48h-1.67l-.17-1.4h-.07c-.93.91-2.21,1.69-3.61,1.69-3,0-4.93-2.26-4.93-6.24Zm8.42,2.9v-6.24c-1.01-.91-1.92-1.25-2.9-1.25-1.92,0-3.44,1.84-3.44,4.57s1.2,4.57,3.29,4.57c1.11,0,2.06-.54,3.04-1.65Z"/>
    <path d="m217.88,102.9c0-.79.56-1.33,1.35-1.33s1.35.54,1.35,1.33-.56,1.33-1.35,1.33-1.35-.52-1.35-1.33Zm.32,3.78h2.01v11.93h-2.01v-11.93Z"/>
    <path d="m223.38,115.52c0-2.6,2.23-3.9,7.32-4.47,0-1.52-.49-3-2.46-3-1.38,0-2.63.64-3.56,1.28l-.79-1.4c1.11-.71,2.77-1.55,4.69-1.55,2.92,0,4.15,1.94,4.15,4.91v7.32h-1.67l-.17-1.42h-.07c-1.13.93-2.46,1.72-3.95,1.72-1.99,0-3.49-1.25-3.49-3.39Zm7.32.17v-3.31c-3.98.49-5.35,1.47-5.35,3,0,1.35.93,1.92,2.11,1.92s2.09-.56,3.24-1.6Z"/>
    <path d="m9.83,138.52c0-3.9,2.63-6.29,5.35-6.29,3.04,0,4.76,2.19,4.76,5.6,0,.42-.02.86-.07,1.15h-8.05c.15,2.53,1.69,4.15,3.98,4.15,1.13,0,2.09-.37,2.97-.93l.71,1.33c-1.03.66-2.31,1.23-3.93,1.23-3.19,0-5.72-2.33-5.72-6.24Zm8.35-.98c0-2.41-1.08-3.71-2.95-3.71-1.67,0-3.19,1.35-3.44,3.71h6.38Z"/>
    <path d="m22.87,140.78v-6.6h-1.77v-1.52l1.87-.12.25-3.34h1.69v3.34h3.22v1.64h-3.22v6.63c0,1.47.47,2.31,1.84,2.31.42,0,.96-.17,1.35-.32l.39,1.52c-.66.22-1.47.44-2.21.44-2.55,0-3.41-1.62-3.41-3.98Z"/>
    <path d="m34.63,138.52c0-3.88,2.46-6.29,5.18-6.29,1.37,0,2.28.52,3.34,1.38l-.1-2.04v-4.59h2.04v17.48h-1.67l-.17-1.4h-.07c-.93.91-2.21,1.69-3.61,1.69-3,0-4.94-2.26-4.94-6.24Zm8.42,2.9v-6.24c-1.01-.91-1.92-1.25-2.9-1.25-1.91,0-3.44,1.84-3.44,4.57s1.2,4.57,3.29,4.57c1.1,0,2.06-.54,3.04-1.65Z"/>
    <path d="m48.11,138.52c0-3.9,2.63-6.29,5.35-6.29,3.04,0,4.76,2.19,4.76,5.6,0,.42-.02.86-.07,1.15h-8.05c.15,2.53,1.69,4.15,3.98,4.15,1.13,0,2.09-.37,2.97-.93l.71,1.33c-1.03.66-2.31,1.23-3.93,1.23-3.19,0-5.72-2.33-5.72-6.24Zm8.35-.98c0-2.41-1.08-3.71-2.95-3.71-1.67,0-3.19,1.35-3.44,3.71h6.38Z"/>
    <path d="m65.84,142.05v-15.07h2.01v15.22c0,.64.27.88.56.88.12,0,.22,0,.44-.05l.27,1.52c-.27.12-.61.2-1.15.2-1.52,0-2.14-.96-2.14-2.7Z"/>
    <path d="m71.52,132.95c1.23-.81,1.84-1.67,1.84-3.07-.07.03-.12.03-.2.03-.69,0-1.3-.44-1.3-1.23,0-.86.54-1.38,1.3-1.38.96,0,1.55.81,1.55,2.23,0,1.96-.93,3.36-2.63,4.35l-.56-.93Z"/>
    <path d="m78.17,128.35h2.04v16.11h-2.04v-16.11Z"/>
    <path d="m84.31,132.53h1.67l.17,1.72h.07c1.13-1.13,2.36-2.01,4-2.01,2.5,0,3.63,1.62,3.63,4.66v7.56h-2.01v-7.29c0-2.23-.69-3.19-2.26-3.19-1.23,0-2.06.64-3.27,1.84v8.64h-2.01v-11.93Z"/>
    <path d="m97.97,140.78v-6.6h-1.77v-1.52l1.87-.12.25-3.34h1.69v3.34h3.22v1.64h-3.22v6.63c0,1.47.47,2.31,1.84,2.31.42,0,.96-.17,1.35-.32l.39,1.52c-.66.22-1.47.44-2.21.44-2.55,0-3.41-1.62-3.41-3.98Z"/>
    <path d="m104.57,138.52c0-3.9,2.63-6.29,5.35-6.29,3.04,0,4.76,2.19,4.76,5.6,0,.42-.02.86-.07,1.15h-8.05c.15,2.53,1.69,4.15,3.98,4.15,1.13,0,2.09-.37,2.97-.93l.71,1.33c-1.03.66-2.31,1.23-3.93,1.23-3.19,0-5.72-2.33-5.72-6.24Zm8.35-.98c0-2.41-1.08-3.71-2.95-3.71-1.67,0-3.19,1.35-3.44,3.71h6.38Z"/>
    <path d="m117.51,132.53h1.67l.17,2.16h.07c.81-1.5,2.04-2.46,3.39-2.46.52,0,.88.07,1.28.25l-.39,1.77c-.39-.12-.66-.2-1.15-.2-1.01,0-2.21.74-3.02,2.75v7.66h-2.01v-11.93Z"/>
    <path d="m125.91,132.53h1.67l.17,1.72h.07c1.13-1.13,2.36-2.01,4-2.01,2.5,0,3.63,1.62,3.63,4.66v7.56h-2.01v-7.29c0-2.23-.69-3.19-2.26-3.19-1.23,0-2.06.64-3.27,1.84v8.64h-2.01v-11.93Z"/>
    <path d="m138.34,138.52c0-3.9,2.63-6.29,5.35-6.29,3.04,0,4.76,2.19,4.76,5.6,0,.42-.02.86-.07,1.15h-8.05c.15,2.53,1.69,4.15,3.98,4.15,1.13,0,2.09-.37,2.97-.93l.71,1.33c-1.03.66-2.31,1.23-3.93,1.23-3.19,0-5.72-2.33-5.72-6.24Zm8.35-.98c0-2.41-1.08-3.71-2.95-3.71-1.67,0-3.19,1.35-3.44,3.71h6.38Z"/>
    <path d="m151.38,140.78v-6.6h-1.77v-1.52l1.87-.12.25-3.34h1.69v3.34h3.22v1.64h-3.22v6.63c0,1.47.47,2.31,1.84,2.31.42,0,.96-.17,1.35-.32l.39,1.52c-.66.22-1.47.44-2.21.44-2.55,0-3.41-1.62-3.41-3.98Z"/>
  </g>
  <g>
    <g>
      <path d="m202.59,30.63c-3.24.39-5.59,3.32-5.59,6.58v44.15c0,3.27,2.35,6.19,5.59,6.58,3.89.47,7.19-2.55,7.19-6.34v-44.64c0-3.79-3.3-6.81-7.19-6.34Z"/>
      <ellipse class="cls-5" cx="203.39" cy="21.72" rx="6.42" ry="6.33" transform="translate(44.11 150.05) rotate(-44.95)"/>
    </g>
    <g>
      <g>
        <path d="m23.11,81.61v-24.23c0-9.59,4.39-14.51,11.32-14.51s11.01,4.61,11.41,13.23c-.01.43-.04.84-.04,1.29v23.95c0,3.29,2.36,6.23,5.63,6.63,3.91.48,7.24-2.57,7.24-6.38v-24.19c0-.45-.03-.86-.05-1.3.39-8.72,4.68-13.21,11.28-13.21s11.45,5.06,11.45,14.51v24.23c0,3.53,2.86,6.39,6.39,6.39h0c3.53,0,6.39-2.86,6.39-6.39v-24.23c0-8.92-2.4-15.71-7.19-20.11-4.79-4.39-10.52-6.66-17.04-6.66s-12.25,2.26-17.04,6.66c-.24.23-.45.49-.68.73-.24-.24-.45-.5-.7-.73-4.79-4.39-10.52-6.66-17.04-6.66s-12.25,2.26-17.04,6.66c-4.66,4.39-7.06,11.05-7.06,20.11v24.22c0-3.52,2.86-6.38,6.39-6.38s6.39,2.86,6.39,6.39"/>
        <polyline class="cls-4" points="10.33 81.61 10.33 81.6 10.33 81.61"/>
      </g>
      <ellipse class="cls-4" cx="16.72" cy="81.61" rx="6.42" ry="6.33" transform="translate(-52.77 35.67) rotate(-44.95)"/>
    </g>
    <g>
      <g>
        <path d="m116.11,81.61v-24.23c0-9.59,4.39-14.51,11.32-14.51s11.01,4.61,11.41,13.23c-.01.43-.04.84-.04,1.29v23.95c0,3.29,2.36,6.23,5.63,6.63,3.91.48,7.24-2.57,7.24-6.38v-24.19c0-.45-.03-.86-.05-1.3.39-8.72,4.68-13.21,11.28-13.21s11.45,5.06,11.45,14.51v24.23c0,3.53,2.86,6.39,6.39,6.39h0c3.53,0,6.39-2.86,6.39-6.39v-24.23c0-8.92-2.4-15.71-7.19-20.11-4.79-4.39-10.52-6.66-17.04-6.66s-12.25,2.26-17.04,6.66c-.24.23-.45.49-.68.73-.24-.24-.45-.5-.7-.73-4.79-4.39-10.52-6.66-17.04-6.66s-12.25,2.26-17.04,6.66c-4.66,4.39-7.06,11.05-7.06,20.11v24.22c0-3.52,2.86-6.38,6.39-6.38s6.39,2.86,6.39,6.39"/>
        <polyline class="cls-4" points="103.33 81.61 103.33 81.6 103.33 81.61"/>
      </g>
      <ellipse class="cls-6" cx="109.72" cy="81.61" rx="6.42" ry="6.33" transform="translate(-25.59 101.37) rotate(-44.95)"/>
    </g>
  </g>
</svg>