<svg width="12" height="12" viewBox="0 0 12 12" fill="none" xmlns="http://www.w3.org/2000/svg">
<path d="M0.896329 10.5951C0.72339 10.7796 0.732794 11.0694 0.917335 11.2423C1.10187 11.4153 1.39167 11.4059 1.56461 11.2213L0.896329 10.5951ZM11.2391 0.701758C11.2309 0.448981 11.0193 0.250716 10.7665 0.258919L6.64729 0.392598C6.39451 0.400802 6.19624 0.612368 6.20445 0.865144C6.21265 1.11792 6.42422 1.31619 6.67699 1.30798L10.3385 1.18916L10.4574 4.85069C10.4656 5.10347 10.6771 5.30173 10.9299 5.29353C11.1827 5.28533 11.3809 5.07376 11.3727 4.82098L11.2391 0.701758ZM1.56461 11.2213L11.1155 1.02974L10.4472 0.403476L0.896329 10.5951L1.56461 11.2213Z" fill="#1C1C1C"/>
</svg>
